<svg width="364" height="273" viewBox="0 0 364 273" fill="none" xmlns="http://www.w3.org/2000/svg">
<path d="M351.383 227.666C351.383 227.666 319.476 245.727 297.458 249.34C275.441 252.952 261.913 249.525 261.913 249.525L202.018 213.031C202.204 213.031 249.878 217.662 293.26 197.1L351.383 227.666Z" fill="#4A7EB6"/>
<path d="M363.702 215.346C363.702 215.346 331.795 233.408 309.778 237.02C287.76 240.633 274.232 237.205 274.232 237.205L214.337 200.712C214.524 200.712 262.197 205.343 305.579 184.781L363.702 215.346Z" fill="#B6D9FF"/>
<path d="M166.602 31.8542C166.602 31.8542 145.73 43.8972 131.302 46.4842C116.782 49.0712 107.889 46.841 107.889 46.841L68.0518 23.558C68.0518 23.558 99.5406 26.145 127.944 12.3179L166.602 31.8542Z" fill="#4A7EB6"/>
<path d="M174.301 24.1149C174.301 24.1149 153.41 36.1882 138.968 38.7818C124.526 41.3753 115.534 39.1395 115.534 39.1395L75.751 15.7977C75.751 15.7977 107.269 18.3912 135.699 4.61865L174.301 24.1149Z" fill="#B6D9FF"/>
<path d="M78.8665 215.762C77.5974 215.999 76.3282 215.129 76.0902 213.864L55.4659 99.0648C55.228 97.7998 56.1005 96.5348 57.3697 96.2976L266.389 58.98C267.658 58.7428 268.927 59.6125 269.165 60.8775L289.789 175.677C289.948 177.021 289.075 178.286 287.806 178.444L78.8665 215.762Z" fill="#004FA5"/>
<path fill-rule="evenodd" clip-rule="evenodd" d="M65.9346 83.9627L63.1582 100.487L82.5926 208.803C82.5926 208.803 117.257 193.623 142.641 189.828C156.919 187.693 167.469 188.8 174.053 190.144L188.411 187.614C194.122 184.056 203.641 179.391 217.761 176.466C242.907 171.248 280.744 173.462 280.744 173.462L261.31 65.1457L252.981 50.5981L65.9346 83.9627ZM159.934 83.2511L164.534 82.4605C163.107 83.5673 162.472 84.1998 162.472 84.1998C162.472 84.1998 161.599 83.8045 159.934 83.2511Z" fill="url(#paint0_linear_0_1)"/>
<path d="M65.9355 83.9648L85.37 192.281C85.37 192.281 117.972 177.417 142.007 173.938C166.043 170.38 179.131 176.943 179.131 176.943L159.697 68.6266C159.697 68.6266 146.529 62.0644 122.573 65.6222C98.5377 69.18 65.9355 83.9648 65.9355 83.9648Z" fill="url(#paint1_linear_0_1)"/>
<path d="M252.904 50.6004L272.339 158.917C272.339 158.917 236.564 156.307 212.846 161.288C189.048 166.269 179.054 176.943 179.054 176.943L159.619 68.6268C159.698 68.6268 169.693 57.9533 193.411 52.9723C217.208 47.9914 252.904 50.6004 252.904 50.6004Z" fill="url(#paint2_linear_0_1)"/>
<path d="M159.699 68.6265C159.699 68.6265 213.957 32.1786 217.685 0L237.12 108.316C233.312 140.574 179.134 176.943 179.134 176.943" fill="url(#paint3_linear_0_1)"/>
<path d="M98.5383 117.331C97.2691 116.461 96.9518 114.722 97.8244 113.457L104.567 103.653C105.439 102.388 107.185 102.072 108.454 102.941C109.723 103.811 110.04 105.55 109.168 106.815L102.425 116.619C101.87 117.41 100.997 117.805 100.125 117.805C99.5695 117.805 99.0142 117.647 98.5383 117.331Z" fill="#004FA5"/>
<path d="M106.788 115.828L96.9514 109.108C95.6822 108.238 95.3649 106.499 96.2375 105.234C97.11 103.969 98.8552 103.653 100.124 104.522L109.961 111.243C111.23 112.112 111.547 113.852 110.674 115.117C110.119 115.828 109.247 116.303 108.374 116.303C107.819 116.303 107.264 116.145 106.788 115.828Z" fill="#004FA5"/>
<path d="M133.125 110.925C131.856 110.056 131.539 108.316 132.411 107.051L139.154 97.2475C140.026 95.9824 141.772 95.6662 143.041 96.5359C144.31 97.4056 144.627 99.145 143.755 100.41L137.012 110.214C136.457 111.004 135.584 111.4 134.712 111.4C134.156 111.4 133.601 111.242 133.125 110.925Z" fill="#004FA5"/>
<path d="M141.454 109.423L131.617 102.703C130.348 101.833 130.031 100.094 130.903 98.8287C131.776 97.5637 133.521 97.2475 134.79 98.1172L144.627 104.838C145.896 105.707 146.213 107.447 145.34 108.712C144.785 109.502 143.913 109.898 143.04 109.898C142.485 109.898 141.93 109.739 141.454 109.423Z" fill="#004FA5"/>
<path d="M104.883 141.761C103.376 141.444 102.424 140.021 102.742 138.519C104.804 128.32 112.736 120.572 122.969 118.674C133.202 116.777 143.435 121.204 148.988 129.98C149.781 131.245 149.464 132.985 148.115 133.775C146.846 134.566 145.101 134.25 144.307 132.906C139.945 126.027 132.012 122.627 124 124.051C115.989 125.553 109.801 131.641 108.215 139.547C107.898 140.97 106.787 141.84 105.439 141.84C105.28 141.84 105.042 141.84 104.883 141.761Z" fill="#004FA5"/>
<path fill-rule="evenodd" clip-rule="evenodd" d="M289.533 69.1898C290.248 65.2725 291.507 62.1456 293.423 59.7309C295.322 57.4118 297.957 54.8322 301.293 52.1831C303.823 50.1767 305.712 48.4482 306.943 47.0933C308.191 45.6427 308.981 44.0098 309.347 42.0034C309.749 39.8058 309.301 37.947 307.91 36.4096C306.518 34.8722 304.546 33.8211 301.881 33.3346C299.406 32.8829 297.034 32.9436 294.748 33.6124C292.48 34.1856 289.328 35.2886 285.44 36.6522C283.024 37.4947 281.015 37.7204 279.588 37.4598C277.969 37.1645 276.759 36.2524 275.878 34.6107C274.998 32.9691 274.74 31.145 275.107 29.1386C275.368 27.7054 275.863 26.611 276.513 25.7424C277.164 24.8739 278.195 24.0748 279.381 23.5015C283.296 21.4518 287.488 20.0448 292.24 19.3326C296.898 18.6032 301.511 18.6554 305.985 19.472C310.744 20.3407 314.871 21.9825 318.364 24.3973C321.858 26.812 324.39 29.6437 325.943 32.9878C327.497 36.332 327.933 39.8671 327.253 43.5934C326.73 46.4597 325.688 48.9352 324.11 51.1153C322.532 53.2954 320.833 55.0586 318.996 56.5004C317.159 57.9423 314.664 59.7576 311.64 61.7726C308.201 63.9093 305.593 65.8027 303.834 67.3574C302.075 68.9122 300.757 70.7449 299.958 72.9685C299.411 74.3495 298.535 75.3744 297.426 76.0606C296.335 76.6512 295.105 76.9204 293.678 76.6598C292.077 76.2689 290.849 75.4524 290.124 74.0366C289.381 72.7163 289.184 71.1007 289.533 69.1898ZM281.264 90.7828C281.787 87.9164 283.175 85.7016 285.315 84.2163C287.472 82.6355 290.026 82.1145 292.882 82.6357C295.642 83.1396 297.752 84.512 299.307 86.7704C300.767 89.0114 301.283 91.5737 300.777 94.3445C300.254 97.2109 298.866 99.4258 296.726 100.911C294.569 102.492 292.015 103.013 289.254 102.509C286.399 101.988 284.289 100.615 282.734 98.3569C281.274 96.1159 280.758 93.5536 281.264 90.7828Z" fill="#E6E6E6"/>
<path d="M25.9278 118.568C21.2586 118.568 17.3842 114.962 16.9868 110.255L15.6953 93.9302H46.4922L45.2008 110.355C44.8034 114.962 40.9289 118.568 36.3591 118.568H25.9278Z" fill="#004FA5"/>
<path d="M57.2519 50.5615L48.9826 51.482L47.7725 55.9825L35.9737 57.7213L40.7134 51.1752L39.8058 45.5496L49.7894 42.7879V38.2874L57.0502 36.1395C51.302 26.8317 40.8142 20.8993 29.0154 21.6152C13.7878 22.6381 1.38396 35.1167 0.375515 50.5615C-0.229552 59.2556 2.69494 67.2337 7.83802 73.2684C12.6786 78.894 15.5022 85.9516 15.5022 93.4182V93.9297H46.6632V93.4182C46.6632 86.1561 49.1843 79.0986 54.0248 73.6775C58.9662 68.1542 61.8907 60.8921 61.8907 52.8117C61.8907 50.8683 61.689 49.0272 61.3865 47.2884H57.7561V47.1861L57.2519 50.5615Z" fill="#EBEBEB"/>
<path fill-rule="evenodd" clip-rule="evenodd" d="M23.6855 94.5238L21.8564 73.0328C21.8564 72.7229 21.9581 72.4129 22.2629 72.103C22.4661 71.8963 22.8726 71.793 23.1774 71.8963C23.279 71.8963 26.5307 72.7229 29.4775 72.3096C29.0711 71.793 28.7662 71.2764 28.6646 70.6564C28.3598 69.0033 29.1727 67.5568 30.7985 66.7302C32.3227 65.9036 34.0501 66.1103 34.9647 67.0402C35.4727 67.5568 36.1841 68.7967 35.0663 70.9664C34.7615 71.5863 34.355 71.9996 33.9485 72.4129C35.9808 73.0328 38.7244 73.2395 40.8583 73.2395C41.1632 73.2395 41.3664 73.3428 41.5696 73.5495C41.7728 73.7561 41.8744 74.0661 41.8744 74.376L40.2486 94.5238C40.2486 95.1437 39.7405 95.557 39.1309 95.4537C38.5212 95.4537 38.1147 94.9371 38.2163 94.3171L39.7405 75.3059C37.8099 75.2026 34.2534 74.996 31.713 73.8594C29.0711 74.8926 25.921 74.5827 24.092 74.2727L25.8194 94.4204C25.7178 94.937 25.3113 95.4537 24.7016 95.4537C24.1936 95.4537 23.7871 95.0404 23.6855 94.5238ZM31.6114 68.59C31.205 68.7967 30.392 69.3133 30.5953 70.3465C30.6969 70.8631 31.0017 71.2764 31.6114 71.5863C32.2211 71.1731 32.7292 70.6564 33.1356 70.0365C33.5421 69.2099 33.5421 68.6933 33.4405 68.4867C33.2372 68.28 33.034 68.28 32.7292 68.28C32.4243 68.28 32.0179 68.3834 31.6114 68.59Z" fill="white"/>
<path d="M25.9278 118.568C21.2586 118.568 17.3842 114.962 16.9868 110.255L15.6953 93.9302H46.4922L45.2008 110.355C44.8034 114.962 40.9289 118.568 36.3591 118.568H25.9278Z" fill="#004FA5"/>
<mask id="mask0_0_1" style="mask-type:luminance" maskUnits="userSpaceOnUse" x="15" y="93" width="32" height="26">
<path d="M25.9278 118.568C21.2586 118.568 17.3842 114.962 16.9868 110.255L15.6953 93.9302H46.4922L45.2008 110.355C44.8034 114.962 40.9289 118.568 36.3591 118.568H25.9278Z" fill="white"/>
</mask>
<g mask="url(#mask0_0_1)">
<path d="M17.2354 109.789C17.3351 111.398 17.7339 112.777 18.4318 114.155L42.2606 117.028C43.4571 115.879 44.4541 114.385 44.9526 112.777L17.2354 109.329V109.789Z" fill="#004FA5"/>
<path d="M46.1873 103.169L46.4913 98.9403L15.6943 95.4702L15.9983 99.8078L46.1873 103.169Z" fill="#004FA5"/>
<path d="M16.1133 106.689L46.0723 109.329L46.4913 105.809L15.6943 103.169L16.1133 106.689Z" fill="#004FA5"/>
</g>
<path d="M36.6954 266.284L44.1432 162.769L55.5762 163.573L48.1284 267.089C47.8844 270.239 45.1719 272.629 42.0113 272.384C38.8507 272.139 36.4513 269.434 36.6954 266.284Z" fill="#004FA5"/>
<path d="M50.2888 148.699C50.5819 148.071 51.3923 148.134 51.5854 148.799L55.652 163.66L44.1442 162.768L50.2888 148.699Z" fill="#ACBAFF"/>
<path d="M48.1077 153.65L53.0499 154.033L51.5869 148.719C51.3876 148.135 50.4964 148.066 50.2906 148.619L48.1077 153.65Z" fill="#004FA5"/>
<!-- <path d="M108.479 250V239.818H112.108C112.9 239.818 113.557 239.962 114.077 240.251C114.597 240.539 114.987 240.933 115.245 241.434C115.504 241.931 115.633 242.491 115.633 243.114C115.633 243.741 115.502 244.304 115.24 244.805C114.982 245.302 114.591 245.696 114.067 245.988C113.547 246.276 112.892 246.42 112.103 246.42H109.608V245.118H111.964C112.465 245.118 112.871 245.032 113.182 244.859C113.494 244.684 113.722 244.445 113.868 244.143C114.014 243.842 114.087 243.499 114.087 243.114C114.087 242.73 114.014 242.388 113.868 242.09C113.722 241.792 113.492 241.558 113.177 241.389C112.866 241.22 112.455 241.136 111.944 241.136H110.015V250H108.479ZM117.214 250H115.583L119.247 239.818H121.022L124.686 250H123.056L120.177 241.668H120.098L117.214 250ZM117.487 246.013H122.777V247.305H117.487V246.013ZM132.569 243.035C132.473 242.733 132.343 242.463 132.181 242.224C132.022 241.982 131.831 241.777 131.609 241.608C131.387 241.436 131.134 241.305 130.849 241.215C130.567 241.126 130.257 241.081 129.919 241.081C129.346 241.081 128.829 241.228 128.368 241.523C127.907 241.818 127.543 242.251 127.274 242.821C127.009 243.388 126.876 244.082 126.876 244.904C126.876 245.729 127.011 246.427 127.279 246.997C127.547 247.567 127.915 248 128.383 248.295C128.85 248.59 129.382 248.737 129.979 248.737C130.532 248.737 131.014 248.625 131.425 248.399C131.84 248.174 132.159 247.856 132.385 247.445C132.614 247.03 132.728 246.543 132.728 245.983L133.126 246.058H130.212V244.79H134.214V245.948C134.214 246.803 134.032 247.546 133.668 248.175C133.306 248.802 132.806 249.286 132.166 249.627C131.53 249.969 130.801 250.139 129.979 250.139C129.057 250.139 128.248 249.927 127.552 249.503C126.86 249.079 126.32 248.477 125.932 247.698C125.544 246.916 125.35 245.988 125.35 244.914C125.35 244.102 125.463 243.373 125.688 242.727C125.914 242.08 126.23 241.532 126.638 241.081C127.049 240.627 127.531 240.281 128.084 240.042C128.641 239.8 129.249 239.679 129.909 239.679C130.459 239.679 130.971 239.76 131.445 239.923C131.922 240.085 132.347 240.315 132.718 240.614C133.092 240.912 133.402 241.267 133.648 241.678C133.893 242.085 134.059 242.538 134.145 243.035H132.569ZM136.165 250V239.818H142.548V241.141H137.701V244.243H142.215V245.56H137.701V248.678H142.608V250H136.165ZM156.523 239.818V250H155.111L149.936 242.533H149.841V250H148.305V239.818H149.727L154.907 247.295H155.002V239.818H156.523ZM167.609 244.909C167.609 245.996 167.41 246.931 167.012 247.713C166.614 248.492 166.069 249.092 165.376 249.513C164.687 249.93 163.903 250.139 163.025 250.139C162.143 250.139 161.356 249.93 160.663 249.513C159.974 249.092 159.43 248.49 159.033 247.708C158.635 246.926 158.436 245.993 158.436 244.909C158.436 243.822 158.635 242.889 159.033 242.11C159.43 241.328 159.974 240.728 160.663 240.31C161.356 239.889 162.143 239.679 163.025 239.679C163.903 239.679 164.687 239.889 165.376 240.31C166.069 240.728 166.614 241.328 167.012 242.11C167.41 242.889 167.609 243.822 167.609 244.909ZM166.087 244.909C166.087 244.08 165.953 243.383 165.685 242.816C165.419 242.246 165.055 241.815 164.591 241.523C164.13 241.228 163.608 241.081 163.025 241.081C162.438 241.081 161.914 241.228 161.454 241.523C160.993 241.815 160.628 242.246 160.36 242.816C160.095 243.383 159.962 244.08 159.962 244.909C159.962 245.738 160.095 246.437 160.36 247.007C160.628 247.574 160.993 248.005 161.454 248.3C161.914 248.591 162.438 248.737 163.025 248.737C163.608 248.737 164.13 248.591 164.591 248.3C165.055 248.005 165.419 247.574 165.685 247.007C165.953 246.437 166.087 245.738 166.087 244.909ZM168.584 241.141V239.818H176.464V241.141H173.287V250H171.756V241.141H168.584ZM181.911 250V239.818H188.225V241.141H183.447V244.243H187.772V245.56H183.447V250H181.911ZM198.958 244.909C198.958 245.996 198.759 246.931 198.362 247.713C197.964 248.492 197.419 249.092 196.726 249.513C196.037 249.93 195.253 250.139 194.374 250.139C193.493 250.139 192.706 249.93 192.013 249.513C191.323 249.092 190.78 248.49 190.382 247.708C189.984 246.926 189.786 245.993 189.786 244.909C189.786 243.822 189.984 242.889 190.382 242.11C190.78 241.328 191.323 240.728 192.013 240.31C192.706 239.889 193.493 239.679 194.374 239.679C195.253 239.679 196.037 239.889 196.726 240.31C197.419 240.728 197.964 241.328 198.362 242.11C198.759 242.889 198.958 243.822 198.958 244.909ZM197.437 244.909C197.437 244.08 197.303 243.383 197.034 242.816C196.769 242.246 196.404 241.815 195.94 241.523C195.48 241.228 194.958 241.081 194.374 241.081C193.788 241.081 193.264 241.228 192.803 241.523C192.343 241.815 191.978 242.246 191.71 242.816C191.444 243.383 191.312 244.08 191.312 244.909C191.312 245.738 191.444 246.437 191.71 247.007C191.978 247.574 192.343 248.005 192.803 248.3C193.264 248.591 193.788 248.737 194.374 248.737C194.958 248.737 195.48 248.591 195.94 248.3C196.404 248.005 196.769 247.574 197.034 247.007C197.303 246.437 197.437 245.738 197.437 244.909ZM207.421 239.818H208.962V246.515C208.962 247.228 208.795 247.859 208.46 248.409C208.125 248.956 207.655 249.387 207.048 249.702C206.442 250.013 205.731 250.169 204.915 250.169C204.103 250.169 203.394 250.013 202.788 249.702C202.181 249.387 201.71 248.956 201.376 248.409C201.041 247.859 200.873 247.228 200.873 246.515V239.818H202.41V246.391C202.41 246.851 202.511 247.261 202.713 247.619C202.918 247.977 203.208 248.258 203.583 248.464C203.958 248.666 204.402 248.767 204.915 248.767C205.432 248.767 205.878 248.666 206.253 248.464C206.631 248.258 206.919 247.977 207.118 247.619C207.32 247.261 207.421 246.851 207.421 246.391V239.818ZM219.414 239.818V250H218.002L212.826 242.533H212.732V250H211.196V239.818H212.618L217.798 247.295H217.892V239.818H219.414ZM224.951 250H221.655V239.818H225.055C226.053 239.818 226.91 240.022 227.626 240.43C228.342 240.834 228.89 241.416 229.271 242.175C229.656 242.93 229.848 243.837 229.848 244.894C229.848 245.955 229.654 246.866 229.266 247.629C228.882 248.391 228.325 248.978 227.596 249.388C226.867 249.796 225.985 250 224.951 250ZM223.191 248.658H224.866C225.642 248.658 226.287 248.512 226.8 248.22C227.314 247.925 227.699 247.499 227.954 246.942C228.209 246.382 228.337 245.7 228.337 244.894C228.337 244.095 228.209 243.418 227.954 242.861C227.702 242.304 227.326 241.881 226.825 241.593C226.325 241.305 225.703 241.161 224.961 241.161H223.191V248.658Z" fill="#9CA3AF"/> -->
<path d="M90.0901 180.02L89.8753 178.954L91.4571 174.836L92.4044 174.645L92.6959 176.092L92.1463 176.203L91.2231 178.625L91.232 178.669L94.5876 177.993L94.8046 179.07L90.0901 180.02ZM93.0107 180.409L92.7559 179.144L92.6895 178.672L91.899 174.747L93.1778 174.489L94.3171 180.146L93.0107 180.409ZM98.0776 179.532C97.5841 179.631 97.1352 179.6 96.7309 179.438C96.3263 179.274 95.9829 178.992 95.701 178.591C95.4186 178.188 95.2159 177.676 95.0928 177.055C94.9696 176.434 94.9602 175.888 95.0645 175.417C95.1703 174.943 95.3781 174.558 95.6879 174.26C95.9991 173.959 96.4014 173.76 96.8949 173.66C97.3883 173.561 97.8366 173.589 98.2398 173.746C98.6445 173.9 98.9873 174.175 99.2681 174.57C99.549 174.966 99.7508 175.473 99.8736 176.092C99.9989 176.715 100.009 177.266 99.9051 177.747C99.8008 178.228 99.5936 178.621 99.2835 178.927C98.9748 179.231 98.5729 179.432 98.0776 179.532ZM97.8523 178.413C98.1469 178.354 98.3551 178.156 98.4769 177.819C98.5984 177.48 98.5953 176.999 98.4678 176.375C98.3854 175.967 98.2761 175.638 98.1399 175.39C98.0032 175.139 97.8481 174.964 97.6745 174.863C97.5008 174.761 97.3155 174.731 97.1185 174.77C96.8257 174.829 96.619 175.025 96.4983 175.358C96.3772 175.689 96.3773 176.16 96.4985 176.772C96.5802 177.187 96.6889 177.522 96.8248 177.778C96.9626 178.034 97.1195 178.214 97.2958 178.319C97.4716 178.421 97.6571 178.453 97.8523 178.413ZM100.966 177.829L100.752 176.763L102.333 172.645L103.281 172.454L103.572 173.902L103.023 174.012L102.099 176.434L102.108 176.478L105.464 175.802L105.681 176.88L100.966 177.829ZM103.887 178.218L103.632 176.953L103.566 176.481L102.775 172.556L104.054 172.299L105.193 177.955L103.887 178.218Z" fill="#004FA5"/>
<path d="M221.356 123.679L220.438 123.096L218.56 119.104L219.078 118.288L220.324 119.079L220.024 119.553L221.133 121.895L221.171 121.919L223.005 119.029L223.933 119.618L221.356 123.679ZM223.658 121.839L222.568 121.148L222.181 120.869L218.801 118.724L219.5 117.622L224.372 120.714L223.658 121.839ZM226.531 117.575C226.262 118 225.928 118.302 225.532 118.482C225.134 118.661 224.692 118.713 224.207 118.639C223.721 118.564 223.211 118.356 222.678 118.016C222.144 117.675 221.744 117.304 221.476 116.902C221.207 116.498 221.073 116.081 221.072 115.651C221.07 115.219 221.205 114.79 221.474 114.365C221.744 113.94 222.075 113.636 222.467 113.453C222.858 113.268 223.294 113.211 223.774 113.282C224.254 113.353 224.76 113.558 225.291 113.898C225.827 114.238 226.233 114.613 226.508 115.021C226.783 115.429 226.923 115.85 226.929 116.286C226.935 116.719 226.802 117.148 226.531 117.575ZM225.568 116.964C225.729 116.71 225.73 116.422 225.571 116.101C225.411 115.779 225.061 115.449 224.523 115.109C224.171 114.885 223.858 114.737 223.584 114.663C223.309 114.589 223.075 114.579 222.882 114.635C222.689 114.69 222.538 114.802 222.431 114.972C222.271 115.224 222.269 115.509 222.426 115.827C222.581 116.143 222.921 116.469 223.446 116.805C223.802 117.033 224.12 117.187 224.399 117.266C224.678 117.343 224.917 117.355 225.114 117.3C225.31 117.244 225.461 117.132 225.568 116.964ZM228.196 114.689L225.552 110.254L225.521 110.235L224.063 112.533L223.113 111.93L225.345 108.415L226.301 109.021L228.965 113.478L228.196 114.689Z" fill="#004FA5"/>
<defs>
<linearGradient id="paint0_linear_0_1" x1="63.1582" y1="50.5981" x2="63.1582" y2="208.803" gradientUnits="userSpaceOnUse">
<stop stop-color="#E1DEDE"/>
<stop offset="1" stop-color="#EBE9E9"/>
</linearGradient>
<linearGradient id="paint1_linear_0_1" x1="65.9355" y1="64.5649" x2="65.9355" y2="192.281" gradientUnits="userSpaceOnUse">
<stop stop-color="#EBE9E9"/>
<stop offset="1" stop-color="#FAF9F9"/>
</linearGradient>
<linearGradient id="paint2_linear_0_1" x1="159.619" y1="49.9175" x2="159.619" y2="176.943" gradientUnits="userSpaceOnUse">
<stop stop-color="#EBE9E9"/>
<stop offset="1" stop-color="#FAF9F9"/>
</linearGradient>
<linearGradient id="paint3_linear_0_1" x1="159.699" y1="0" x2="159.699" y2="176.943" gradientUnits="userSpaceOnUse">
<stop stop-color="#F3F3F3"/>
<stop offset="1" stop-color="white"/>
</linearGradient>
</defs>
</svg>
